<?xml version="1.0" standalone="no"?>
<!DOCTYPE svg PUBLIC "-//W3C//DTD SVG 20010904//EN"
 "http://www.w3.org/TR/2001/REC-SVG-20010904/DTD/svg10.dtd">
<svg version="1.0" xmlns="http://www.w3.org/2000/svg"
 width="302.000000pt" height="302.000000pt" viewBox="0 0 302.000000 302.000000"
 preserveAspectRatio="xMidYMid meet">
<metadata>
Created by potrace 1.11, written by Peter Selinger 2001-2013
</metadata>
<g transform="translate(0.000000,302.000000) scale(0.100000,-0.100000)"
fill="#000000" stroke="none">
<path d="M1870 2974 c-59 -20 -93 -42 -117 -77 l-28 -40 -3 -684 c-2 -459 1
-697 8 -723 23 -86 129 -146 213 -120 60 18 92 44 116 93 20 41 21 60 21 336
0 202 4 306 12 335 25 82 126 156 215 156 45 0 115 -41 138 -80 19 -33 20 -57
25 -375 4 -222 9 -349 17 -365 18 -40 74 -87 121 -101 77 -22 164 18 201 94
20 41 21 59 21 403 0 285 -3 372 -15 423 -45 188 -170 287 -376 298 -134 8
-240 -25 -324 -98 l-35 -31 0 209 c0 199 -1 212 -23 254 -33 64 -129 111 -187
93z"/>
<path d="M687 2486 c-20 -8 -44 -20 -53 -27 -46 -38 -58 -131 -24 -186 34 -57
53 -61 298 -64 122 -2 221 -6 220 -10 -4 -9 -186 -210 -403 -444 -86 -93 -163
-184 -171 -202 -20 -47 -18 -122 6 -160 41 -68 39 -68 500 -71 228 -2 434 0
458 3 55 8 108 54 123 106 17 55 -1 109 -49 148 l-37 31 -257 0 c-142 0 -258
3 -258 6 0 6 117 137 231 259 119 127 325 358 341 384 27 40 24 129 -5 172
-43 64 -40 64 -482 66 -317 2 -408 0 -438 -11z"/>
<path d="M415 1215 c-204 -45 -340 -155 -340 -274 1 -85 47 -139 127 -148 55
-6 89 10 163 77 77 70 107 83 201 88 67 4 89 1 128 -16 54 -24 80 -70 67 -117
-13 -51 -44 -63 -196 -80 -340 -38 -463 -92 -532 -233 -25 -50 -28 -68 -28
-152 0 -81 4 -102 25 -145 37 -74 106 -137 187 -171 59 -25 81 -28 168 -28
143 0 263 40 361 120 l42 33 17 -45 c42 -110 200 -147 294 -68 46 38 57 87 35
154 -14 47 -18 110 -23 415 -6 351 -7 361 -29 408 -63 126 -242 198 -492 196
-63 -1 -142 -7 -175 -14z m363 -729 c-3 -87 -5 -97 -34 -137 -46 -64 -119
-101 -209 -107 -41 -2 -87 1 -107 7 -80 26 -118 110 -81 181 26 50 86 75 238
100 71 12 141 27 155 35 14 7 29 13 33 14 5 1 7 -41 5 -93z"/>
<path d="M1254 1205 c-50 -30 -80 -89 -78 -156 2 -41 212 -752 266 -896 55
-147 237 -189 354 -81 52 48 54 56 139 398 32 129 61 238 64 242 4 4 35 -106
70 -245 84 -332 87 -341 118 -378 15 -18 50 -42 78 -55 86 -41 170 -27 240 37
24 22 48 52 54 67 35 88 264 856 268 903 4 44 1 64 -16 97 -59 115 -215 127
-294 21 -13 -18 -44 -136 -92 -354 -41 -180 -75 -329 -77 -331 -2 -2 -30 117
-62 264 -63 293 -77 345 -99 388 -59 114 -227 140 -325 50 -43 -39 -59 -88
-121 -381 -34 -159 -65 -298 -69 -309 -6 -13 -14 8 -30 75 -83 357 -134 559
-149 587 -40 78 -158 106 -239 57z"/>
</g>
</svg>
